<?xml version="1.0" standalone="no"?><!DOCTYPE svg PUBLIC "-//W3C//DTD SVG 1.1//EN" "http://www.w3.org/Graphics/SVG/1.1/DTD/svg11.dtd"><svg class="icon" width="200px" height="200.00px" viewBox="0 0 1024 1024" version="1.1" xmlns="http://www.w3.org/2000/svg"><path fill="#333333" d="M320.1 444.2C200 507.9 64 632.9 64 632.9l-1.2 294.6s47-14.6 129.2-25.3c120.7-15.7 241.6-10.7 320.1-38.6 42.4-15.1 259.1-143.8 304.9-191.8 45.8-48 111-320 111-320s-48.7-27-95.8 23-48 166-103.2 216c-55.1 50-300.9 124.9-344.9 80.9-44.1-43.9-25.8-96.9-0.8-121.8 24.9-24.9 143-67.1 178.4-102.5 35.4-35.4 14.4-92.6 14.4-92.6s-210.3 65.1-256 89.4zM806.3 199l-96.1-70.7c-3.6-2.7-8.5-2.7-12.2 0L601.1 199c-8.1 5.9-3.9 18.6 6.1 18.6h17v109.6c0 5.7 4.7 10.4 10.4 10.4h139.2c5.7 0 10.4-4.7 10.4-10.4V217.6h16c9.9 0 14.1-12.7 6.1-18.6z m-142.2 74.6h-24v-24h24v24z m0-30.7h-24v-24h24v24z m30.4 30.7h-24v-24h24v24z m0-30.7h-24v-24h24v24zM772 329h-52v-84h52v84zM762.2 292m-5 0a5 5 0 1 0 10 0 5 5 0 1 0-10 0Z" /></svg>