<?xml version="1.0" standalone="no"?><!DOCTYPE svg PUBLIC "-//W3C//DTD SVG 1.1//EN" "http://www.w3.org/Graphics/SVG/1.1/DTD/svg11.dtd"><svg class="icon" width="200px" height="163.06px" viewBox="0 0 1256 1024" version="1.1" xmlns="http://www.w3.org/2000/svg"><path fill="#333333" d="M721.366998 791.238838a302.508741 302.508741 0 0 1 302.508741-302.508741 294.364275 294.364275 0 0 1 80.048467 11.169553A141.248312 141.248312 0 0 0 1053.428516 442.190291a69.809709 69.809709 0 0 0-6.282874-139.619419h-76.092583l-50.262991-198.026876a93.079613 93.079613 0 0 0-66.319224-66.319224 1165.124051 1165.124051 0 0 0-591.986336 0 93.079613 93.079613 0 0 0-66.319224 66.319224L145.902293 302.570872H93.079613a69.809709 69.809709 0 0 0-23.269904 135.198137A139.619419 139.619419 0 0 0 0 558.539806v186.159226a93.079613 93.079613 0 0 0 69.809709 89.821826V884.31845a46.539806 46.539806 0 0 0 46.539807 46.539807h139.619419a46.539806 46.539806 0 0 0 46.539806-46.539807v-46.539806h422.81414a306.231925 306.231925 0 0 1-3.955883-46.539806zM186.159225 721.429128a93.079613 93.079613 0 1 1 93.079613-93.079612 93.079613 93.079613 0 0 1-93.079613 93.079612z m100.293283-593.847928A1101.829914 1101.829914 0 0 1 558.477676 93.141743a1076.698419 1076.698419 0 0 1 272.490566 35.137554L880.998533 372.380581H235.956818zM1023.875739 558.539806a232.699032 232.699032 0 1 0 232.699031 232.699032 232.699032 232.699032 0 0 0-232.699031-232.699032z m93.079612 231.302838v42.351223h-69.809709v32.112467h71.904001V907.588354H1047.145642v58.174757h-65.155729V907.588354H907.526223v-43.28202h74.46369v-32.112467H907.526223v-42.351223h60.03635l-80.048467-139.619419h69.80971c31.647068 65.388428 51.426486 108.20505 59.803651 128.915263h1.396194c1.163495-3.025087 2.32699-6.748272 3.955884-11.169553s12.10035-28.621981 29.320078-63.759535l25.596893-53.986175h65.853826l-82.142758 139.619419z" /></svg>