<?xml version="1.0" standalone="no"?><!DOCTYPE svg PUBLIC "-//W3C//DTD SVG 1.1//EN" "http://www.w3.org/Graphics/SVG/1.1/DTD/svg11.dtd"><svg class="icon" width="200px" height="200.00px" viewBox="0 0 1024 1024" version="1.1" xmlns="http://www.w3.org/2000/svg"><path fill="#333333" d="M406.47294561 388.99042945a21.73590956 21.73590956 0 0 0-21.47741663 21.48865524v7.11418345a21.42122259 21.42122259 0 0 0 21.47741663 21.35378995h35.02021458a21.71343234 21.71343234 0 0 0 21.47741564-21.47741662v-7.10294485a21.42122259 21.42122259 0 0 0-21.47741564-21.35378897zM582.4956012 388.99042945a21.72467095 21.72467095 0 0 0-21.47741662 21.48865524v7.11418345a21.409983 21.409983 0 0 0 21.47741662 21.35378995h35.02021458a21.71343234 21.71343234 0 0 0 21.47741663-21.47741662v-7.10294485a21.4324612 21.4324612 0 0 0-21.47741663-21.35378897z"  /><path fill="#333333" d="M328.96992922 403.94932073h28.95124247a49.28229731 49.28229731 0 0 1 48.55177392-42.49404042h35.02021458a49.29353691 49.29353691 0 0 1 48.55177294 42.49404042h43.89889514a49.28229731 49.28229731 0 0 1 48.55177293-42.49404042h35.02021458a49.28229731 49.28229731 0 0 1 48.55177294 42.49404042h29.11982555a7.38391598 7.38391598 0 0 0 7.30524375-7.42887042v-106.7127518a7.38391598 7.38391598 0 0 0-7.50754266-7.26028832H328.80134712a7.38391598 7.38391598 0 0 0-7.29400514 7.47382584v106.64531916a7.39515459 7.39515459 0 0 0 7.46258724 7.28276554zM664.59530136 431.48447086a49.0687598 49.0687598 0 0 1-47.124441 35.50348364h-35.02021458a49.20362606 49.20362606 0 0 1-47.20311225-35.50348364h-46.62993234a49.09123702 49.09123702 0 0 1-47.124441 35.50348364h-35.02021458a49.16990925 49.16990925 0 0 1-47.20311324-35.50348364h-39.63937556l-58.82407059 185.31717356h502.37598797L704.35830458 431.48447086z"  /><path fill="#333333" d="M511.9943802 2.66666667C233.64211906 2.66666667 8 228.30878573 8 506.66104687s225.64211906 503.9943802 503.9943802 503.99438119 503.9943802-225.64211906 503.99438119-503.99438119S790.34664233 2.66666667 511.9943802 2.66666667z m288.55712518 706.15856981a28.09709142 28.09709142 0 0 1-28.0296578 28.01841919h-21.47741663v10.7330895a10.3284907 10.3284907 0 0 1-10.27229568 10.27229569h-7.00179539v0.47203143a10.37344613 10.37344613 0 0 1-10.27229668-10.27229667v-10.74432712H307.44755816v10.74432712a10.36220752 10.36220752 0 0 1-10.27229668 10.27229667h-7.013034a10.36220752 10.36220752 0 0 1-10.27229667-10.27229667v-10.74432712h-28.43425659a28.09709142 28.09709142 0 0 1-28.01841919-28.00718058v-64.39853306l70.98449105-236.25157992a15.94790859 15.94790859 0 0 1-0.47203144-4.6641174V283.00820203a28.09709142 28.09709142 0 0 1 28.01842017-28.01841919h380.05249177a28.09709142 28.09709142 0 0 1 28.00718058 28.01841919v120.46908825a15.86923734 15.86923734 0 0 1-0.47203144 4.66411641l70.98449105 236.2515809z"  /><path fill="#333333" d="M255.19820694 644.39298759a4.02350386 4.02350386 0 0 0-3.73129313 3.73129411v57.08204972a3.68633869 3.68633869 0 0 0 3.73129313 3.61890506h514.04190075a4.01226427 4.01226427 0 0 0 3.74253272-3.73129312v-56.61001927a3.67509909 3.67509909 0 0 0-3.73129411-3.58518923H255.19820694z"  /></svg>