<?xml version="1.0" standalone="no"?><!DOCTYPE svg PUBLIC "-//W3C//DTD SVG 1.1//EN" "http://www.w3.org/Graphics/SVG/1.1/DTD/svg11.dtd"><svg class="icon" width="200px" height="200.00px" viewBox="0 0 1024 1024" version="1.1" xmlns="http://www.w3.org/2000/svg"><path fill="#333333" d="M805.36064 30.72 239.66208 30.72C200.62208 30.72 168.96 62.68928 168.96 102.08256l0 820.82304c0 39.39328 31.66208 71.36256 70.70208 71.36256l565.69856 0c39.04 0 70.70208-31.96416 70.70208-71.36256L876.06272 102.08256C876.0576 62.68928 844.40064 30.72 805.36064 30.72L805.36064 30.72zM540.22144 958.61248c-29.312 0-53.05856-23.99232-53.05856-53.53984 0-29.54752 23.74656-53.5296 53.05856-53.5296 29.30176 0 53.04832 23.9872 53.04832 53.5296C593.26976 934.62528 569.46176 958.61248 540.22144 958.61248L540.22144 958.61248zM805.36064 708.8128c0 39.3984-31.66208 71.36256-70.69696 71.36256L310.35904 780.17536c-39.04 0-70.69696-31.96416-70.69696-71.36256L239.66208 173.44512c0-39.3984 31.66208-71.36256 70.69696-71.36256l424.30976 0c39.03488 0 70.69696 31.96416 70.69696 71.36256L805.36576 708.8128 805.36064 708.8128z" /></svg>